PathFileType	4	(X/Y/Z)	C:/Users/beibeiliu/ov580/test_trc/User1\sequence.29_training_dense_right.trc
DataRate	CameraRate	NumFrames	NumMarkers	Units	OrigDataRate	OrigDataStartFrame	OrigNumFrames
120	120	23	19	mm	120	29	142
Frame#	Time	ThumbCMC			ThumbMCP			ThumbIP			ThumbTip			IndexMCP			IndexPIP			IndexTip			MiddleMCP			MiddlePIP			MiddleTip			RingMCP			RingPIP			RingTip			PinkyMCP			PinkyPIP			PinkyTip			BackHand1			BackHand2			BackHand3	
		X0	Y0	Z0	X1	Y1	Z1	X2	Y2	Z2	X3	Y3	Z3	X4	Y4	Z4	X5	Y5	Z5	X6	Y6	Z6	X7	Y7	Z7	X8	Y8	Z8	X9	Y9	Z9	X10	Y10	Z10	X11	Y11	Z11	X12	Y12	Z12	X13	Y13	Z13	X14	Y14	Z14	X15	Y15	Z15	X16	Y16	Z16	X17	Y17	Z17	X18	Y18	Z18	
28	0.233333	79.4276	101.132	136.617	56.5022	88.5287	105.809	46.2025	81.4718	80.3503	46.7418	68.1136	56.5899	94.2358	136.088	59.1809	78.561	131.191	28.8306	60.5042	108.34	22.3885	123.225	128.997	48.2383	115.292	128.555	16.9477	84.9078	102.368	3.22449	132.671	101.456	46.1807	118.4	98.5018	16.516	89.298	76.6519	15.8142	135.889	72.306	50.8016	117.934	62.2919	31.2887	86.8505	55.3825	34.1267	145.281	90.4663	102.113	149.054	85.7011	130.683	124.169	112.584	124.924	
29	0.241667	76.9087	92.0054	129.861	54.2382	74.2741	108.144	38.0022	65.8845	79.2546	36.0606	50.323	57.5521	92.757	130.344	56.3281	82.628	135.418	28.3228	68.1255	124.724	6.99387	126.256	120.853	49.6672	123.477	127.93	16.6765	110.039	118.295	-12.3973	131.087	95.4285	41.9653	119.67	88.3552	12.0803	96.6522	63.8739	2.9347	134.205	64.551	49.2339	119.716	51.5084	31.2051	90.4208	42.9937	30.5469	139.652	91.9241	97.5856	146.698	82.1497	131.135	118.621	108.436	122.103	
30	0.25	79.4419	89.3896	136.392	48.2573	73.2017	114.459	37.7045	62.826	88.4827	25.3702	49.6796	71.8043	90.0623	128.744	66.61	88.365	138.963	33.7564	83.4023	139.405	10.8274	120.012	115.467	45.4047	117.765	119.926	16.2465	106.048	113.567	-16.9213	122.315	86.4571	41.7773	105.526	73.1797	14.8105	79.244	56.2507	13.8842	125.359	55.2483	52.5754	102.089	41.6257	40.6714	76.6819	33.8362	43.509	142.493	85.0377	98.6763	147.44	78.3831	129.582	120.034	104.504	123.583	
31	0.258333	76.8214	94.4202	143.191	43.6481	79.3678	122.837	30.9052	73.2665	99.5927	13.6521	63.146	80.1206	87.8472	129.728	73.374	83.1823	144.366	46.2552	78.826	149.151	21.4409	102.679	111.616	51.4326	91.6289	112.412	20.8712	73.641	105.572	-5.83508	100.26	80.8565	44.3647	72.324	68.236	30.3836	51.5627	50.4202	40.1549	106.112	53.7996	55.5413	82.2239	41.6936	51.9203	55.7819	39.1727	72.257	133.804	84.9255	100.345	141.084	78.0218	131.548	114.316	106.514	130.697	
32	0.266667	73.2526	94.5339	150.886	42.3951	82.4988	128.405	22.8661	78.7347	106.312	10.897	70.3052	89.3471	73.5037	136.027	75.58	67.8145	141.123	49.8756	59.0837	141.797	23.8658	85.4068	113.181	51.8184	66.735	110.005	25.8461	41.2103	96.635	9.776	89.6396	90.6318	50.7573	61.2504	73.8217	35.5709	41.7905	53.6588	49.9881	102.718	61.6591	57.4016	76.9078	55.0739	51.3595	54.3155	46.1869	70.2099	127.541	88.0817	103.5	136.479	81.3621	133.314	111.561	105.672	130.517	
33	0.275	68.4165	91.2106	149.415	40.3693	76.16	128.111	22.8003	70.2678	108.37	12.3737	63.3119	86.3925	62.0185	122.819	69.1271	50.4926	123.062	44.5667	38.5707	118.334	22.7763	82.8552	114.843	54.3016	65.3043	110.017	23.9959	41.4247	91.4589	5.40971	99.8	98.3516	51.6075	78.3875	87.8916	23.7252	59.4339	65.005	24.1122	118.712	70.327	57.8885	97.9746	65.1974	37.2181	67.6942	47.7842	42.3035	124.482	93.8552	105.697	138.706	85.2602	136.143	108.624	107.693	132.143	
34	0.283333	71.1646	83.3624	140.919	42.1245	66.3264	119.864	27.9604	59.5904	98.7811	15.7949	49.5903	84.0703	60.2901	111.342	59.8642	52.8532	107.082	38.7514	40.5903	101.402	10.7595	93.774	112.944	50.2094	85.5075	113.302	17.9443	70.3838	101.388	-8.52755	117.622	100.454	47.8994	108.006	103.243	18.2232	93.7356	85.1625	-3.40321	134.595	73.1067	52.0247	129.364	70.2466	29.1373	106.4	58.739	10.7435	128.238	91.4276	101.696	140.268	86.1825	129.331	109.331	102.378	125.808	
35	0.291667	68.2276	76.3986	133.739	44.6744	57.4894	119.445	30.3674	49.1779	97.3271	16.9319	36.3068	83.6072	67.5285	109.804	57.0744	58.7686	110.513	33.9316	50.4488	104.773	2.6462	105.727	110.032	48.6246	99.0579	119.753	19.6309	93.1756	121.873	-12.0591	126.628	97.1385	47.2668	125.065	105.243	20.2095	117.894	102.156	-9.68883	144.387	68.4933	57.1782	146.826	69.1055	31.9215	138.804	62.7257	1.16911	133.993	87.0453	100.739	143.22	83.1355	129.962	107.058	96.604	120.33	
36	0.3	63.7547	64.3914	132.362	46.6648	42.1115	116.3	31.8822	31.4618	94.7399	15.0033	16.1885	79.1542	68.529	104.8	58.2035	60.6605	112.796	30.1704	57.0332	113.163	3.07726	98.7922	112.549	50.8961	94.0154	125.885	24.2374	97.651	136.219	-4.79252	122.582	101.572	48.6063	121.576	112.496	22.1058	121.431	114.951	0.982431	143.243	73.6365	58.9353	147.779	76.0696	35.7281	152.367	75.9427	8.15279	129.829	88.1386	99.2551	136.765	83.6066	134.436	100.182	91.4059	122.175	
37	0.308333	63.8278	50.0848	131.993	50.3211	26.6087	111.793	38.6075	15.8705	86.2696	25.1902	0.795681	69.6639	63.0178	96.8869	64.3103	54.9625	107.829	39.0678	49.5937	115.241	14.3505	92.3732	113.332	55.1947	88.6113	127.29	32.0449	89.8556	142.132	4.34687	117.1	105.517	54.27	113.731	115.844	31.9204	117.842	119.728	4.52304	142.762	81.1953	56.4585	146.043	79.2512	34.7216	141.535	80.5274	7.3699	117.96	89.3016	104.432	131.578	82.9537	137.092	89.2416	84.4486	129.023	
38	0.316667	66.436	55.4661	132.799	49.9779	33.0353	104.104	38.9083	25.4685	80.3977	32.8724	15.8945	61.9353	60.5389	111.874	71.1348	52.059	123.37	51.3096	51.784	134.421	24.5872	88.6544	122.038	63.8266	89.062	135.631	37.15	89.5244	142.45	6.8197	112.231	106.977	56.527	109.829	113.514	26.262	106.552	107.332	-2.11396	135.229	78.7903	57.7588	135.497	72.339	33.9374	132.622	69.9062	11.2707	122.669	92.2094	107.315	128.679	82.0083	142.532	90.5772	89.9379	133.981	
39	0.325	71.2572	67.9223	138.571	54.7473	53.0411	108.51	37.3303	47.3839	87.4051	23.5822	39.4077	70.039	66.0835	122.543	81.8938	54.7762	140.168	55.448	49.4993	143.988	30.9168	94.5102	124.804	62.3081	86.4531	130.812	31.7404	77.6272	121.396	-4.10808	107.532	106.788	52.5233	100.663	100.156	23.405	92.9254	82.79	2.01328	131.627	80.4562	58.532	125.021	72.2556	37.6435	115.858	65.8207	17.0998	124.939	100.589	111.308	137.19	86.2471	141.231	95.9875	99.8518	136.429	
40	0.333333	67.2733	68.6104	145.289	50.2396	57.5516	118.925	31.3066	57.9224	97.5134	15.7369	53.158	78.248	61.1834	120.533	79.4805	46.5927	126.815	52.0917	40.0056	122.613	22.3916	84.4048	116.904	56.9069	72.0337	109.411	26.3957	59.3338	89.0407	4.17532	104.473	105.247	51.0316	91.6271	95.0717	23.8587	82.56	74.3124	10.3614	128.089	88.379	57.3957	124.728	79.5528	35.1244	113.2	77.4696	13.835	128.11	101.567	111.674	136.517	90.879	141.432	98.9492	102.582	137.806	
41	0.341667	66.7915	65.2486	144.536	49.2813	54.4023	117.869	27.3	50.2026	101.323	14.714	45.763	84.8646	49.9928	102.437	68.2418	39.1551	94.9876	40.3598	37.7274	81.9138	14.6851	79.2481	110.705	54.0951	66.9175	100.265	24.0046	63.6961	74.6761	-0.0384221	105.157	112.24	50.9536	92.6706	106.007	22.713	85.3798	83.6011	4.98543	136.723	94.5117	60.0122	135.901	95.1802	36.5994	132.99	95.2591	11.5095	121.541	102.113	109.802	130.865	91.895	140.872	91.755	98.952	134.242	
42	0.35	69.7651	62.3521	141.931	43.9957	50.5327	119.2	31.2677	44.5239	101.97	16.6825	37.9197	83.9635	49.3545	95.7788	63.1269	43.6296	85.9255	38.4543	42.3174	70.594	15.7543	83.4443	112.315	53.3285	74.6866	109.862	20.2039	66.4253	92.1335	-4.93801	111.192	115.037	52.9337	108.034	118.39	22.9461	98.0039	104.477	-1.92166	141.399	93.8922	60.3222	144.187	98.7303	38.902	143.353	103.986	12.6673	121.135	100.802	105.248	132.151	91.0176	136.196	93.4563	96.541	129.086	
43	0.358333	67.1877	65.0462	138.763	48.9117	47.7664	118.359	31.8564	40.0965	95.9641	18.5478	26.1072	82.2817	60.1078	102.831	60.9611	44.5899	97.2675	32.5812	42.9155	80.5878	6.56113	91.2867	117.631	50.3963	82.1907	122.521	24.1581	77.4902	111.738	-10.9763	116.988	111.614	55.9409	113.68	121.762	22.7412	111.55	113.171	-4.70846	141.703	89.31	61.4527	148.345	91.7551	36.1359	146.848	93.9798	7.34424	123.931	97.917	106.888	136.801	91.3022	134.463	93.6656	97.2997	126.974	
44	0.366667	68.8941	69.383	135.287	45.589	47.401	114.408	30.7666	37.2535	95.3182	27.261	26.2357	75.3232	60.5431	114.731	66.7747	49.3054	117.702	35.8238	44.7983	100.407	12.1757	92.6892	124.585	55.9339	89.3239	131.074	23.4956	81.9775	121.59	-6.67859	120.039	110.42	56.3424	115.418	117.981	20.9055	111.045	103.541	-3.90602	140.485	85.9246	55.6772	144.594	81.0857	34.2542	135.611	77.4514	9.19571	124.463	97.7851	104.811	132.621	89.816	137.915	95.0808	99.4649	131.638	
45	0.375	65.9269	70.4902	140.304	44.5848	52.0875	115.448	36.6545	47.3079	87.6852	36.9294	39.3887	62.5232	60.7913	124.066	77.0849	49.5463	131.149	48.1182	40.8086	110.526	23.4133	92.5456	129.67	66.3364	90.9818	137.998	33.5269	77.1267	118.247	1.81654	112.575	118.267	61.0788	107.701	119.594	24.8955	101.186	97.9223	7.27373	136.305	88.5641	61.5398	132.893	81.8805	32.1201	112.331	69.4405	12.488	125.679	101.054	106.853	131.117	93.2204	140.119	94.2806	102.363	133.359	
46	0.383333	63.8455	74.7357	150.038	39.5554	66.7184	116.357	35.0346	68.1024	88.6133	40.3406	61.6659	64.9955	59.9776	137.828	89.817	48.9464	144.359	57.1888	41.9128	116.934	38.2071	88.5323	142.83	79.529	82.5264	151.659	46.4986	68.2582	120.303	21.6071	113.02	131.529	67.7495	99.0236	131.385	36.5425	89.4194	99.3274	24.2742	130.867	102.227	68.806	116.05	98.9551	39.2783	95.2815	79.221	30.6997	121.562	106.856	119.684	131.377	93.698	146.099	93.0155	105.766	144.3	
47	0.391667	61.4572	79.0059	154.802	41.6513	76.6577	124.486	29.8726	83.9394	94.8174	43.9332	84.991	65.8202	60.0349	145.473	103.373	45.2929	153.664	70.404	36.476	128.155	52.2898	86.6306	155.468	89.1553	77.5072	160.014	55.9124	61.3998	129.926	37.6752	109.869	140.142	81.9863	93.6061	143.361	49.7179	84.3444	112.839	38.2363	124.381	117.07	76.7766	113.338	114.414	50.0358	91.8278	95.851	41.6715	120.208	113.156	125.29	130	94.097	157.636	92.9803	109.805	154.95	
48	0.4	62.1067	77.0782	151.598	41.0821	71.6917	123.216	28.7901	77.3433	93.5639	39.225	74.4068	69.2931	58.0026	140.508	98.406	47.6398	148.599	66.2096	38.2994	125.39	43.0857	87.6472	149.43	86.2455	75.472	158.06	56.9744	63.0118	133.781	31.7809	106.184	138.341	81.1607	101.355	142.209	48.0965	86.9362	119.462	34.7865	129.584	110.674	77.5505	118.651	113.449	50.7643	93.8226	91.9586	38.5625	121.878	110.047	124.413	131.033	89.6913	155.75	95.2979	106.618	149.778	
49	0.408333	59.3544	63.594	146.631	42.4883	51.7794	118.398	30.8421	47.9141	90.544	32.9892	39.7388	63.798	56.885	117.453	81.53	45.7684	126.738	53.0088	37.6054	115.358	22.7442	86.8893	129.787	72.5177	81.7021	140.591	40.3007	78.4097	129.938	8.14587	111.8	120.757	69.1541	107.26	128.296	37.981	100.99	110.431	9.95819	129.363	97.5817	65.3117	124.807	92.2163	40.9653	110.759	71.677	20.6939	120.525	99.9823	117.954	125.783	87.4237	148.471	90.6188	97.0736	139.523	
50	0.416667	61.488	51.7537	133.534	48.2775	27.8134	114.668	38.0904	15.593	89.8645	32.1961	0.175784	67.2514	55.0342	93.8234	62.8479	52.3197	101.59	38.2466	42.4863	103.837	10.2292	89.7409	106.373	55.6763	87.332	117.748	28.6997	87.2157	123.855	-4.90353	113.45	98.5734	53.2578	116.673	102.36	24.3335	114.232	94.1873	-2.33767	138.863	72.8099	60.3785	138.217	61.8519	31.8637	122.236	42.5109	14.5403	120.428	88.8077	106.046	128.947	83.7656	141.344	90.8168	86.5919	128.569	
